<svg t="1705478143685" class="icon" viewBox="0 0 1024 1024" version="1.1"
    xmlns="http://www.w3.org/2000/svg" p-id="8023" width="200" height="200">
    <path
        d="M515.2 92c-105.6 0-191.2 86.4-191.2 191.2V328h41.6v-8h32v-32.8c0-64.8 52.8-118.4 118.4-118.4 64.8 0 118.4 53.6 118.4 118.4V320h32v8h41.6v-44.8c-1.6-105.6-88-191.2-192.8-191.2z"
        fill="#1D85DB" p-id="8024"></path>
    <path
        d="M512 56C390.4 56 291.2 155.2 291.2 276V328h48v-9.6H376v-37.6C376 205.6 436.8 144 512 144s136 61.6 136 136.8v37.6h36.8V328h48v-51.2C732.8 155.2 633.6 56 512 56z"
        fill="#459DF5" p-id="8025"></path>
    <path d="M48 873.6a464 121.6 0 1 0 928 0 464 121.6 0 1 0-928 0Z" fill="#DAE9FF" p-id="8026"></path>
    <path
        d="M791.2 881.6H232.8c-39.2 0-71.2-32-71.2-71.2V382.4c0-39.2 32-71.2 71.2-71.2H792c39.2 0 71.2 32 71.2 71.2v427.2c0 39.2-32.8 72-72 72z"
        fill="#1D85DB" p-id="8027"></path>
    <path
        d="M791.2 851.2H232.8c-39.2 0-71.2-32-71.2-71.2V382.4c0-39.2 32-71.2 71.2-71.2H792c39.2 0 71.2 32 71.2 71.2v397.6c0 39.2-32.8 71.2-72 71.2z"
        fill="#459DF5" p-id="8028"></path>
    <path
        d="M760 812.8H264c-32.8 0-59.2-26.4-59.2-59.2V420.8c0-32.8 26.4-59.2 59.2-59.2h496c32.8 0 59.2 26.4 59.2 59.2v333.6c0 32-27.2 58.4-59.2 58.4z"
        fill="#FFFFFF" p-id="8029"></path>
    <path
        d="M735.2 770.4H288.8c-24.8 0-44.8-20-44.8-44.8V452.8c0-24.8 20-44.8 44.8-44.8h445.6c24.8 0 44.8 20 44.8 44.8v272.8c0.8 24.8-19.2 44.8-44 44.8z"
        fill="#459DF5" p-id="8030"></path>
    <path
        d="M780 656V487.2L496 770.4h169.6zM507.2 408L244 670.4v55.2c0 24.8 20 44.8 44.8 44.8h29.6L681.6 408H507.2zM330.4 408h-40.8c-24.8 0-44.8 20-44.8 44.8v40.8L330.4 408z"
        fill="#61ADFF" p-id="8031"></path>
    <path
        d="M598.4 530.4c0-40-34.4-72-76.8-72s-76.8 32-76.8 72c0 28.8 17.6 53.6 44 64.8v101.6l-6.4 5.6v13.6h75.2V601.6c29.6-12.8 40.8-42.4 40.8-71.2z"
        fill="#FFFFFF" p-id="8032"></path>
    <path
        d="M584 536c0-37.6-32-67.2-72-67.2s-72 30.4-72 67.2c0 26.4 16.8 49.6 40.8 60.8v106.4h62.4V596.8c24-11.2 40.8-34.4 40.8-60.8z"
        fill="#2260AA" p-id="8033"></path>
</svg>