<svg t="1705478918140" class="icon" viewBox="0 0 1056 1024" version="1.1"
    xmlns="http://www.w3.org/2000/svg" p-id="11465" width="200" height="200">
    <path
        d="M355.84 610.464l38.464 70.304 70.304 38.432a32 32 0 0 1 0 56.16l-70.304 38.464-38.464 70.272a32 32 0 0 1-56.128 0l-38.464-70.272-70.272-38.464a32 32 0 0 1 0-56.16l70.272-38.432 38.464-70.304a32 32 0 0 1 56.128 0z m378.88-305.024l44.032 89.184 98.432 14.304a32 32 0 0 1 17.728 54.592l-71.232 69.44 16.832 98.016a32 32 0 0 1-46.432 33.728l-88.032-46.272-88.032 46.272a32 32 0 0 1-46.432-33.728l16.8-98.016-71.232-69.44a32 32 0 0 1 17.76-54.592l98.4-14.304 44.032-89.184a32 32 0 0 1 57.376 0zM331.328 141.12l28.576 57.92 63.904 9.28a32 32 0 0 1 17.728 54.56l-46.24 45.088 10.88 63.648a32 32 0 0 1-46.4 33.728l-57.152-30.048-57.152 30.08a32 32 0 0 1-46.432-33.76l10.88-63.648-46.208-45.088A32 32 0 0 1 181.44 208.32l63.904-9.28 28.576-57.92a32 32 0 0 1 57.408 0z"
        fill="#9cbee6" p-id="11466"></path>
</svg>